<?xml version="1.0" encoding="utf-8"?>
<!-- Generator: Adobe Illustrator 22.1.0, SVG Export Plug-In . SVG Version: 6.00 Build 0)  -->
<svg version="1.1" id="Layer_1" xmlns="http://www.w3.org/2000/svg" xmlns:xlink="http://www.w3.org/1999/xlink" x="0px" y="0px"
	 viewBox="0 0 582.8 582.8" style="enable-background:new 0 0 582.8 582.8;" xml:space="preserve">
<style type="text/css">
	.st0{fill:#FFFFFF;stroke:#0066CC;stroke-width:6;}
	.st1{fill:#0066CC;}
	.st2{fill:#FFFFFF;}
	.st3{fill:#0066CC;stroke:#FFFFFF;stroke-width:3;}
	.st4{fill:#FFFFFF;stroke:#0066CC;stroke-width:4;}
</style>
<ellipse transform="matrix(0.7071 -0.7071 0.7071 0.7071 -120.7009 291.3996)" class="st0" cx="291.4" cy="291.4" rx="288.4" ry="288.4"/>
<ellipse transform="matrix(0.7071 -0.7071 0.7071 0.7071 -120.7023 291.3991)" class="st1" cx="291.4" cy="291.4" rx="281.3" ry="281.3"/>
<ellipse transform="matrix(6.336235e-02 -0.998 0.998 6.336235e-02 -17.8778 563.7493)" class="st2" cx="291.4" cy="291.4" rx="261" ry="261"/>
<path class="st3" d="M547.5,291.4c0,141.4-114.6,256.1-256,256.1C150,547.5,35.3,432.8,35.3,291.4C35.3,150,150,35.3,291.4,35.3
	C432.8,35.3,547.5,150,547.5,291.4z"/>
<polygon class="st2" points="248.6,180.4 251.8,168.7 255.9,180.1 268.1,179.6 258.4,187 262.7,198.4 252.7,191.6 243.1,199.1 
	246.6,187.5 236.4,180.8 "/>
<polygon class="st2" points="285.4,244.7 285,232.6 292.3,242.3 303.8,238.1 296.8,248.1 304.4,257.6 292.7,254.1 285.9,264.3 
	285.7,252.1 273.9,248.8 "/>
<polygon class="st2" points="425.5,242.7 425.4,230.5 432.5,240.4 444,236.6 436.8,246.4 444,256.2 432.4,252.3 425.3,262.2 
	425.5,250 413.9,246.3 "/>
<polygon class="st2" points="498.4,345.1 502.1,333.5 505.7,345.1 517.9,345.1 507.9,352.1 511.7,363.7 502,356.4 492.1,363.6 
	496.1,352 486.2,344.9 "/>
<polygon class="st2" points="379,355 382.7,343.4 386.4,355 398.5,354.9 388.7,362 392.5,373.5 382.7,366.3 373,373.6 376.8,362 
	366.9,355 "/>
<polygon class="st2" points="286.5,423.7 290,412 293.8,423.5 306,423.3 296.2,430.5 300.2,442 290.3,434.9 280.6,442.3 
	284.3,430.7 274.3,423.7 "/>
<polygon class="st2" points="217.1,365.2 220.7,353.6 224.5,365.2 236.6,365 226.8,372.1 230.7,383.7 220.9,376.5 211.1,383.8 
	214.9,372.2 204.9,365.2 "/>
<polygon class="st2" points="75.2,349.6 74.7,337.5 82.1,347.1 93.5,342.8 86.7,352.9 94.2,362.4 82.6,359 75.8,369.1 75.5,357 
	63.8,353.7 "/>
<path class="st2" d="M387.5,208.2c-19.4,0-35.2-15.7-35.2-35.2c0-10.2,4.4-19.3,11.3-25.8c-15,4-26.1,17.7-26.1,33.9
	c0,19.4,15.7,35.2,35.2,35.2c9.2,0,17.6-3.6,23.9-9.4C393.6,207.8,390.6,208.2,387.5,208.2z"/>
<g>
	<rect x="276" y="190.5" transform="matrix(0.9783 -0.2072 0.2072 0.9783 -33.899 66.304)" class="st2" width="47.2" height="8.9"/>
	<polygon class="st2" points="322.1,193.7 278.4,202.9 277,196.2 320.7,187 	"/>
</g>
<g>
	
		<rect x="301.6" y="141.6" transform="matrix(0.2828 -0.9592 0.9592 0.2828 65.0973 408.7031)" class="st2" width="8.5" height="38.5"/>
	
		<rect x="302.6" y="142.6" transform="matrix(0.2827 -0.9592 0.9592 0.2827 65.1339 408.721)" class="st2" width="6.6" height="36.4"/>
</g>
<g>
	<polygon class="st2" points="340,210.9 315.9,232.3 310.6,226.3 334.7,204.9 	"/>
	
		<rect x="310" y="215.5" transform="matrix(0.7473 -0.6644 0.6644 0.7473 -63.0514 271.3514)" class="st2" width="30.5" height="6.1"/>
</g>
<g>
	
		<rect x="316" y="241.8" transform="matrix(0.4988 -0.8667 0.8667 0.4988 -45.718 412.5365)" class="st2" width="35.8" height="7.9"/>
	
		<rect x="316.9" y="242.7" transform="matrix(0.4987 -0.8668 0.8668 0.4987 -45.6947 412.5794)" class="st2" width="33.9" height="6.1"/>
</g>
<g>
	<rect x="346" y="234.9" transform="matrix(0.1376 -0.9905 0.9905 0.1376 75.3574 564.8645)" class="st2" width="32" height="8.5"/>
	
		<rect x="346.9" y="235.9" transform="matrix(0.1376 -0.9905 0.9905 0.1376 75.349 564.8531)" class="st2" width="30.3" height="6.5"/>
</g>
<g>
	
		<rect x="391.9" y="220.3" transform="matrix(0.9788 -0.2048 0.2048 0.9788 -40.7045 86.1842)" class="st2" width="8.3" height="39.1"/>
	
		<rect x="392.9" y="221.3" transform="matrix(0.9789 -0.2045 0.2045 0.9789 -40.6675 86.0731)" class="st2" width="6.4" height="37"/>
</g>
<rect x="443.6" y="207.1" transform="matrix(0.1006 -0.9949 0.9949 0.1006 177.9847 648.7282)" class="st2" width="8.5" height="37.6"/>
<g>
	
		<rect x="246.7" y="349.7" transform="matrix(0.504 -0.8637 0.8637 0.504 -170.5404 410.7231)" class="st2" width="51.3" height="8.4"/>
	
		<rect x="248.1" y="350.6" transform="matrix(0.5039 -0.8638 0.8638 0.5039 -170.5296 410.7822)" class="st2" width="48.6" height="6.4"/>
</g>
<g>
	<polygon class="st2" points="257.1,388.3 234.8,426.9 227.6,422.8 249.8,384.1 	"/>
	
		<rect x="221.2" y="402.3" transform="matrix(0.4991 -0.8666 0.8666 0.4991 -230.0413 413.1353)" class="st2" width="42.2" height="6.4"/>
</g>
<g>
	
		<rect x="149.3" y="345.1" transform="matrix(0.7445 -0.6677 0.6677 0.7445 -186.8743 210.4337)" class="st2" width="64.3" height="8.6"/>
	
		<rect x="151" y="346" transform="matrix(0.7444 -0.6677 0.6677 0.7444 -186.8809 210.4507)" class="st2" width="60.8" height="6.6"/>
</g>
<g>
	
		<rect x="193.9" y="238.1" transform="matrix(0.8956 -0.445 0.445 0.8956 -83.6449 129.066)" class="st2" width="78.5" height="9.2"/>
	
		<rect x="195.9" y="239.2" transform="matrix(0.8956 -0.4449 0.4449 0.8956 -83.6385 129.0559)" class="st2" width="74.3" height="7.1"/>
</g>
<g>
	
		<rect x="155.5" y="213.2" transform="matrix(0.9783 -0.2071 0.2071 0.9783 -40.7824 45.165)" class="st2" width="79.8" height="8.4"/>
	
		<rect x="157.6" y="214.1" transform="matrix(0.9783 -0.2071 0.2071 0.9783 -40.7803 45.1643)" class="st2" width="75.5" height="6.5"/>
</g>
<g>
	
		<rect x="312.7" y="393.4" transform="matrix(0.146 -0.9893 0.9893 0.146 -103.272 676.8643)" class="st2" width="55.4" height="9.8"/>
	<polygon class="st2" points="347.9,372.8 340.3,424.8 332.8,423.7 340.5,371.7 	"/>
</g>
<g>
	
		<rect x="329.2" y="335.6" transform="matrix(0.1418 -0.9899 0.9899 0.1418 -37.6633 637.4532)" class="st2" width="39.2" height="9.6"/>
	
		<rect x="330.2" y="336.7" transform="matrix(0.1417 -0.9899 0.9899 0.1417 -37.6553 637.4634)" class="st2" width="37.1" height="7.4"/>
</g>
<g>
	
		<rect x="285.8" y="308.4" transform="matrix(0.4929 -0.8701 0.8701 0.4929 -121.491 416.5258)" class="st2" width="21.6" height="8.1"/>
	
		<rect x="286.4" y="309.4" transform="matrix(0.4929 -0.8701 0.8701 0.4929 -121.4948 416.5069)" class="st2" width="20.4" height="6.2"/>
</g>
<g>
	
		<rect x="412.1" y="326.3" transform="matrix(0.9801 -0.1983 0.1983 0.9801 -59.5677 89.3499)" class="st2" width="8.4" height="31.4"/>
	
		<rect x="413" y="327.2" transform="matrix(0.9801 -0.1984 0.1984 0.9801 -59.5914 89.3909)" class="st2" width="6.4" height="29.8"/>
</g>
<g>
	<g>
		<path class="st2" d="M113,269.2l-9.4,44H88.6l-5.2-31l-5.2,31H63.3l-8.8-44h12.1l4.8,32.9l5.5-32.9H90l5.5,31.1l4.7-31.1H113z"/>
		<path class="st2" d="M153.5,313.2h-12.6l-1.1-7.7h-8.6l-1,7.7h-12.4l10.1-44h15.9L153.5,313.2z M138.6,297.5l-3-18.7l-3,18.7
			H138.6z"/>
		<path class="st2" d="M196,280.7h-11.4l0,32.6h-12.3l0-32.6h-11.6l0-11.5h35.3L196,280.7z"/>
		<path class="st2" d="M233.5,313.2h-30.3v-44h30.3v10.6h-15.6v6.5h15v10.7h-15l0.1,7.6h15.6L233.5,313.2z"/>
		<path class="st2" d="M278.1,313.2h-12.2c-0.5-1.1-0.8-2.5-0.8-4v-10.6c0-2-0.5-3.3-1.5-3.8c-0.8-0.4-2.5-0.6-5.2-0.6v19h-12.1v-44
			h17c5,0,8.5,1,10.7,2.9c2.2,1.9,3.2,4.8,3.2,8.6c0,2.6-0.5,4.6-1.6,6c-1.1,1.4-3.1,2.6-6.2,3.7c5.2,0.8,7.8,2.9,7.8,6.3v12.5
			C277.1,311.1,277.4,312.4,278.1,313.2z M265.2,281.8c0-1.5-0.3-2.6-0.8-3.3c-0.7-0.9-2-1.4-4-1.4h-2.1v9.2c2.8,0,4.6-0.3,5.3-0.7
			C264.7,285.2,265.2,283.9,265.2,281.8z"/>
		<path class="st2" d="M356.4,313.2h-11v-33.7l-7.4,33.7h-12.1l-7.2-33.7v33.7h-11.1v-44h18.3l6.1,28.3l5.9-28.3h18.4V313.2z"/>
		<path class="st2" d="M524.5,313.2h-13.8c-0.6-1.1-0.9-2.5-0.9-4v-10.6c0-2-0.6-3.3-1.7-3.8c-0.9-0.4-2.8-0.6-5.9-0.6v19h-13.6v-44
			h19.2c5.6,0,9.6,1,12.1,2.9c2.4,1.9,3.7,4.8,3.7,8.6c0,2.6-0.6,4.6-1.8,6c-1.2,1.4-3.5,2.6-7,3.7c5.9,0.8,8.8,2.9,8.8,6.3v12.5
			C523.4,311.1,523.8,312.4,524.5,313.2z M510,281.8c0-1.5-0.3-2.6-0.9-3.3c-0.8-0.9-2.3-1.4-4.5-1.4h-2.4v9.2c3.2,0,5.2-0.3,6-0.7
			C509.4,285.2,510,283.9,510,281.8z"/>
	</g>
	<path class="st2" d="M477.9,313.2h-30.3v-44h30.3v10.6h-15.6v6.5h15v10.7h-15l0.1,7.6H478L477.9,313.2z"/>
	<path class="st2" d="M436.7,280.6h-11.4l0,32.6H413l0-32.6h-11.6l0-11.5h35.3L436.7,280.6z"/>
	<path class="st2" d="M393.6,313.2h-30.3v-44h30.3v10.6H378v6.5h15V297h-15l0.1,7.6h15.6L393.6,313.2z"/>
</g>
<g>
	<path class="st2" d="M95,234.3c3.5,0.7,5.9,2,7.3,3.8c0.8,1.1,1.2,2.4,1.3,3.8c0,0.9-0.2,2.3-0.5,4.2c-0.9,4.4-2.1,7.2-3.8,8.4
		c-1.7,1.3-4.6,1.5-8.9,0.6c-0.1,0-0.8-0.2-1.9-0.4l1.6-8.1c2.1,0.4,3.3,0.6,3.7,0.7c1.5,0,2.3-0.6,2.6-1.8c0.3-1.6-0.7-2.6-2.9-3
		c-1.4-0.3-2.6-0.2-3.6,0.2c-0.8,0.3-1.9,1-3.2,2.1c-3.5,3-5.9,4.8-7.1,5.4c-2.5,1.3-5.4,1.7-8.6,1c-3.3-0.6-5.7-2-7.1-3.9
		c-1.3-1.8-1.6-4.5-0.9-8.3c0.7-3.6,1.9-6.1,3.5-7.4c1.8-1.4,4.4-1.8,8-1.1c0.3,0.1,1.1,0.3,2.6,0.6l-1.5,7.6
		c-1.6-0.3-2.7-0.4-3.3-0.3c-1.3,0.1-2.1,0.7-2.3,1.8c-0.3,1.5,0.5,2.5,2.5,2.9c1.4,0.3,2.9,0,4.4-0.8c0.7-0.4,1.9-1.3,3.6-2.8
		c2.9-2.4,5.1-3.9,6.8-4.6C89.3,233.9,92,233.7,95,234.3z"/>
	<path class="st2" d="M110.8,216.3l-5.2,16.3l-37.8-12.1l5.2-16.3l6.8,2.2l-2.7,8.4l7.9,2.5l2.6-8l6.8,2.2l-2.6,8l9.4,3l2.7-8.4
		L110.8,216.3z"/>
	<path class="st2" d="M92.5,162.7l32.6,23.6l-4.6,9.1l-26.5-9.4l23.3,15.7l-4.6,9.2l-38.2-12.5l3.7-7.4l28,10.4l-24.8-16.7l4.1-8.1
		l26.8,9.2l-23.6-15.5L92.5,162.7z"/>
	<path class="st2" d="M139.7,165.6l-9.9,13.9l-32.4-23.1l9.9-13.9l5.8,4.2l-5.1,7.2l6.8,4.8l4.9-6.9l5.9,4.2l-4.9,6.9l8.1,5.8
		l5.1-7.2L139.7,165.6z"/>
	<path class="st2" d="M156.5,146.8l-5.7,6.2c-1-0.4-2-1.1-3-2l-7-6.4c-1.4-1.2-2.4-1.8-3.2-1.6c-0.6,0.1-1.6,0.9-2.8,2.3l12.6,11.5
		l-5.6,6.1L112.5,136l7.9-8.6c2.3-2.5,4.6-3.7,6.8-3.6c2.3,0.1,4.7,1.3,7.2,3.6c1.7,1.6,2.8,3.1,3.2,4.5c0.4,1.4,0.3,3.2-0.4,5.3
		c2.9-2.1,5.6-2.1,7.8,0l8.3,7.7C154.7,146,155.7,146.7,156.5,146.8z M129.7,134.2c-1-0.9-1.9-1.5-2.6-1.6c-0.9-0.2-1.9,0.2-2.8,1.2
		l-1,1.1l6.1,5.6c1.3-1.4,2-2.5,2.1-3.1C131.7,136.5,131.1,135.4,129.7,134.2z"/>
	<path class="st2" d="M176.6,129.8l-6.6,5.5l-5-4.8l-4.5,3.8l3.9,5.7l-6.5,5.4l-20.1-35l8.4-7L176.6,129.8z M159.7,125.5l-12.4-11.7
		l9.3,14.3L159.7,125.5z"/>
	<path class="st2" d="M195.7,117.7l-4.4,2.8l-2.8-1.9c0.1,2.8-1.1,5-3.7,6.6c-4.5,2.9-8.3,1.8-11.5-3.3l-11.9-18.7
		c-1.9-2.9-2.5-5.5-1.8-7.6c0.6-2.2,2.5-4.2,5.5-6.2c3.1-2,5.9-2.8,8.4-2.5c1.3,0.1,2.4,0.7,3.4,1.6c0.6,0.6,1.3,1.7,2.3,3.2
		l1.2,1.8l-6.8,4.3c-0.8-1.2-1.4-2-1.8-2.4c-0.9-0.8-1.8-0.9-2.7-0.3c-1.4,0.9-1.3,2.7,0.3,5.3l9.7,15.2c1.5,2.3,2.9,3.1,4.2,2.2
		c1.4-0.9,1.4-2.5-0.1-4.8l-3.7-5.8l-2.2,1.4l-3.7-5.8l9-5.7L195.7,117.7z"/>
	<path class="st2" d="M215.7,107.9l-15.4,7.4l-17.2-35.8l15.4-7.4l3.1,6.5l-7.9,3.8l3.6,7.5l7.6-3.7l3.1,6.5l-7.6,3.7l4.3,8.9
		l7.9-3.8L215.7,107.9z"/>
	<path class="st2" d="M272,74.1l-4.5,10c1.5,1.4,2.4,2.1,2.6,2.2c0.6,0.3,1.7,0.3,3.2,0.1l1.1,7l-3.2,0.5c-1.4,0.2-2.6,0.1-3.7-0.5
		c-0.6-0.3-1.6-1.1-3.1-2.3c-1.3,1.9-2.3,3.2-3,3.8c-1.2,0.9-2.7,1.6-4.6,1.8c-3.3,0.5-6,0-8-1.4c-1.8-1.3-3-3.8-3.6-7.5
		c-0.3-2.2-0.2-4.1,0.5-5.6c0.5-1.2,1.6-2.7,3.3-4.6c-1.4-1.3-2.4-2.5-3-3.5c-0.6-1.1-1.1-2.5-1.3-4.3c-1-6.6,1.5-10.3,7.4-11.2
		c5.9-0.9,9.3,1.7,10.2,7.7c0.4,2.3,0.2,4.2-0.4,5.7c-0.5,1.3-1.7,2.9-3.5,4.7l3.7,3.1l1.7-4.4L272,74.1z M255.6,67
		c-0.3-1.8-1.1-2.6-2.6-2.4c-1.5,0.2-2.1,1.6-1.8,4c0.2,1,0.4,1.8,0.7,2.3c0.3,0.5,0.9,1,1.8,1.7c0.1-0.1,0.3-0.3,0.7-0.8
		C255.5,70.4,255.9,68.8,255.6,67z M258.8,86.3l-4.9-4.1c-1.4,1.5-2,3.1-1.8,4.8c0.1,0.9,0.5,1.7,1.1,2.4c0.6,0.7,1.3,0.9,2.2,0.8
		C256.6,90,257.7,88.7,258.8,86.3z"/>
	<path class="st2" d="M333.5,56.8l-10.4,38.9l-10.2-1l-0.7-28.1l-6.3,27.4l-10.2-1l-2-40.2l8.2,0.8l0.3,29.9l6.8-29.2l9,0.9
		l0.9,28.3l6.1-27.6L333.5,56.8z"/>
	<path class="st2" d="M352.2,103.2l-8.3-2.3l1.1-6.8l-5.7-1.5l-2.4,6.5l-8.2-2.2l17.1-36.5l10.5,2.9L352.2,103.2z M346.1,86.9
		l2.5-16.9l-6.4,15.8L346.1,86.9z"/>
	<path class="st2" d="M382.6,80.5l-5.5-2.2l-12.1,30.2l-7.8-3.1l12.1-30.2l-5.6-2.2l2.7-6.7l18.9,7.5L382.6,80.5z"/>
	<path class="st2" d="M388.6,120.3l-15.1-8l18.7-35.1l15.1,8l-3.4,6.3l-7.8-4.1l-3.9,7.3l7.5,4l-3.4,6.3l-7.5-4l-4.7,8.7l7.8,4.1
		L388.6,120.3z"/>
	<path class="st2" d="M410.5,135.5l-6.8-4.9c0.3-1,0.8-2.1,1.7-3.2l5.5-7.8c1.1-1.5,1.5-2.6,1.2-3.4c-0.2-0.6-1.1-1.4-2.6-2.5
		l-9.9,13.9l-6.7-4.8l23.1-32.3l9.5,6.7c2.8,2,4.2,4.1,4.5,6.3c0.2,2.3-0.7,4.8-2.7,7.6c-1.4,1.9-2.7,3.2-4,3.7
		c-1.3,0.6-3.1,0.7-5.4,0.2c2.5,2.6,2.8,5.2,1,7.8l-6.6,9.2C411.1,133.5,410.5,134.6,410.5,135.5z M419.8,107.3
		c0.8-1.1,1.2-2.1,1.3-2.8c0.1-1-0.4-1.8-1.5-2.6l-1.2-0.8l-4.8,6.8c1.6,1.1,2.7,1.6,3.3,1.7C417.7,109.6,418.7,108.8,419.8,107.3z"
		/>
	<path class="st2" d="M447.6,157.5c-2.7,2.4-5,3.7-7.1,3.9c-2.3,0.2-4.6-0.9-6.9-3.5l-8.2-9l29.5-26.6l7.3,8.1
		c2.6,2.9,3.8,5.6,3.3,7.9c-0.4,2-1.8,4.1-4.2,6.3c-1.9,1.7-3.8,2.7-5.5,3c-1.3,0.2-2.9-0.2-4.7-1.3c1,2.1,1.3,3.8,0.9,5.3
		C451.4,153.4,450,155.3,447.6,157.5z M442.6,150.8c1.4-1.3,2.3-2.2,2.5-2.8c0.5-1,0.2-2.1-0.9-3.4c-0.2-0.3-0.6-0.6-1-0.9l-7.3,6.6
		l0.5,0.5c1.2,1.3,2.2,1.9,3.2,1.8C440.3,152.6,441.3,151.9,442.6,150.8z M454.8,139.3c1.2-1,1.8-1.9,2-2.6c0.2-0.7-0.2-1.6-1.2-2.7
		c-0.3-0.4-0.6-0.7-0.8-0.8l-6.2,5.6l0.3,0.4c1.1,1.2,2.1,1.8,2.9,1.8C452.6,141,453.6,140.4,454.8,139.3z"/>
	<path class="st2" d="M461.4,179.2c-3.3,2.3-6.1,3.1-8.3,2.5c-1.8-0.6-3.9-2.5-6.1-5.7c-1.9-2.8-2.9-5.2-2.8-7.2
		c0.1-2.3,1.6-4.3,4.3-6.2l17.9-12.4c1.7-1.2,3.1-2,4-2.3c1.4-0.6,2.9-0.7,4.4-0.3c1.8,0.5,3.9,2.3,6.1,5.6c2.1,3.1,3,5.6,2.8,7.8
		c-0.3,2.1-1.9,4.2-4.9,6.3L461.4,179.2z M457,172.3l15.8-10.9c2.3-1.6,3.1-3.1,2.2-4.3c-0.6-0.9-1.4-1.1-2.4-0.8
		c-0.5,0.2-1.3,0.6-2.4,1.4l-15.2,10.5c-1.1,0.7-1.8,1.3-2.1,1.7c-0.6,0.8-0.6,1.6,0,2.5C453.7,173.6,455.1,173.6,457,172.3z"/>
	<path class="st2" d="M465.6,207.5l-4-7.7l5.8-3.8l-2.7-5.2l-6.4,2.6l-3.9-7.6l38.5-12.1l5,9.7L465.6,207.5z M473.4,191.9l14.1-9.6
		l-16,6L473.4,191.9z"/>
	<path class="st2" d="M473.6,229.7l-2.9-7.9c0.8-0.7,1.9-1.3,3.2-1.7l9-3.2c1.7-0.6,2.7-1.3,2.9-2.1c0.2-0.6-0.1-1.8-0.7-3.6
		l-16,5.8l-2.8-7.8l37.4-13.5l4,10.9c1.2,3.2,1.2,5.8,0.1,7.7c-1.1,2-3.3,3.6-6.6,4.7c-2.2,0.8-4,1.1-5.5,0.8
		c-1.4-0.3-2.9-1.2-4.5-2.8c0.5,3.6-0.7,5.9-3.6,7l-10.7,3.9C475.2,228.4,474.1,229,473.6,229.7z M497.2,211.7
		c1.3-0.5,2.2-1,2.6-1.5c0.6-0.7,0.7-1.7,0.2-3l-0.5-1.4l-7.8,2.8c0.7,1.8,1.3,2.9,1.8,3.2C494.2,212.4,495.5,212.4,497.2,211.7z"/>
	<path class="st2" d="M489.5,252.4c-4,0.9-7,0.6-8.8-0.7c-1.7-1.2-2.8-3.3-3.5-6.2l-2.5-11.5l38.9-8.3l2.2,10.5
		c0.8,3.7,0.6,6.4-0.5,8.3c-1.1,1.8-3.5,3.1-7.2,3.9L489.5,252.4z M488.7,244.2l16.5-3.5c1.6-0.3,2.6-0.7,3-1.1
		c0.6-0.6,0.7-1.6,0.4-3l-0.3-1.5l-25,5.3c0.5,2.1,1,3.3,1.6,3.7C485.4,244.6,486.7,244.6,488.7,244.2z"/>
</g>
<g>
	<path class="st2" d="M90.3,415.3l-4.8-8.6l14-14.7c0.9-1,2.2-2.2,4-3.8c-2.5,1.7-3.9,2.6-4.1,2.7L82,400.6l-3.6-6.4l30.7-17.3
		l4.9,8.6c-3,3.2-6,6.5-8.9,9.7c-3.5,3.6-6.6,6.7-9.4,9.3c2.5-1.8,4.2-3,5.3-3.6l16.4-9.2l3.5,6.3L90.3,415.3z"/>
	<path class="st2" d="M111.8,443.6l-10.9-12.5l26.5-23.2l11,12.5l-4.8,4.2l-5.6-6.4l-5.5,4.9l5.4,6.2l-4.8,4.2l-5.4-6.2L111,433
		l5.6,6.4L111.8,443.6z"/>
	<path class="st2" d="M172.3,453.8l-27.5,22.8l-7.6-6.4l13.4-21.2l-18.6,16.7l-7.6-6.4l18.2-30.7l6.1,5.2l-14.5,22.2l19.8-17.7
		l6.7,5.7l-13.2,21.4l18.5-17L172.3,453.8z"/>
	<path class="st2" d="M203.7,500.2c-1.4,3.3-3.1,5.2-5.2,5.8c-1.8,0.4-4.4-0.1-8-1.6c-3.1-1.3-5.1-2.7-6.1-4.3c-1.1-1.8-1.1-4,0-6.8
		l7.5-17.8c0.7-1.7,1.4-2.9,1.9-3.6c0.9-1.1,2-1.9,3.3-2.3c1.7-0.5,4.3,0,7.8,1.5c3.3,1.4,5.5,3,6.4,4.8c0.9,1.8,0.8,4.2-0.5,7.1
		L203.7,500.2z M196.4,496.9l6.6-15.8c1-2.3,0.7-3.7-0.6-4.3c-0.9-0.4-1.7-0.3-2.3,0.4c-0.3,0.4-0.7,1.1-1.2,2.2l-6.4,15.2
		c-0.4,1.1-0.7,1.8-0.7,2.3c0,0.9,0.4,1.5,1.4,1.9C194.6,499.4,195.7,498.8,196.4,496.9z"/>
	<path class="st2" d="M244.1,520.7l-8-1.8c-0.1-0.9-0.1-2,0.2-3.2l1.8-8.2c0.4-1.6,0.2-2.6-0.3-3.2c-0.4-0.4-1.5-0.8-3.3-1.2
		l-3.3,14.8l-7.8-1.7l7.7-34.4l11,2.5c3.2,0.7,5.4,2,6.4,3.8c1.1,1.8,1.3,4.2,0.6,7.2c-0.4,2-1.1,3.5-2.1,4.4
		c-0.9,0.9-2.5,1.6-4.7,2c3.2,1.4,4.6,3.4,4,6.1l-2.2,9.8C243.8,518.9,243.8,520,244.1,520.7z M241.2,494.3c0.3-1.2,0.3-2.1,0.1-2.7
		c-0.3-0.8-1.1-1.4-2.4-1.7l-1.4-0.3l-1.6,7.2c1.8,0.4,3,0.5,3.6,0.3C240.3,496.9,240.8,495.9,241.2,494.3z"/>
	<path class="st2" d="M280.1,526.3l-16.6-1.3l2.8-35.1l8.1,0.6l-2.3,28.8l8.5,0.7L280.1,526.3z"/>
	<path class="st2" d="M312.5,526.4l-16.6,0.4l-0.9-35.2l16.6-0.4l0.2,6.4l-8.6,0.2l0.2,7.4l8.2-0.2l0.2,6.4l-8.2,0.2l0.2,8.8
		l8.6-0.2L312.5,526.4z"/>
	<path class="st2" d="M351.8,519.9l-8.2,1.7l-2-5.8l-5.6,1.1l0.6,6.1l-8.1,1.7l-0.5-35.9l10.4-2.1L351.8,519.9z M339.5,509.6
		l-5-14.3l1.1,15.1L339.5,509.6z"/>
	<path class="st2" d="M390.1,504.8l-9.2,3.6l-12.7-15.9c-0.8-1-1.9-2.5-3.2-4.5c1.3,2.7,2,4.2,2.1,4.5l7.3,18.4l-6.8,2.7l-12.9-32.8
		l9.2-3.6c2.8,3.4,5.6,6.8,8.4,10.2c3.1,3.9,5.8,7.4,7.9,10.5c-1.4-2.7-2.4-4.6-2.8-5.8l-6.9-17.5l6.7-2.6L390.1,504.8z"/>
	<path class="st2" d="M421,479c1.5,2.7,2,5.1,1.5,7.2c-0.4,1.3-1.1,2.4-2.1,3.3c-0.7,0.6-1.8,1.4-3.4,2.3c-3.8,2.1-6.6,3-8.5,2.7
		c-1.9-0.4-3.9-2.2-5.7-5.5c-0.1-0.1-0.3-0.6-0.8-1.5l6.9-3.9c0.9,1.7,1.5,2.6,1.7,2.8c0.9,1,1.8,1.2,2.9,0.6c1.4-0.8,1.5-2,0.5-3.8
		c-0.6-1.1-1.4-1.9-2.3-2.3c-0.7-0.3-1.9-0.6-3.5-0.8c-4.3-0.5-7-0.9-8.2-1.4c-2.5-0.9-4.5-2.6-5.9-5.1c-1.5-2.6-1.9-5-1.3-7.2
		c0.5-2,2.4-3.9,5.7-5.8c3.1-1.8,5.7-2.6,7.6-2.3c2.1,0.3,4,1.9,5.6,4.7c0.1,0.2,0.5,0.9,1,2.1l-6.5,3.7c-0.8-1.3-1.3-2.1-1.7-2.4
		c-0.9-0.8-1.8-0.9-2.7-0.4c-1.3,0.7-1.5,1.9-0.7,3.4c0.7,1.1,1.7,1.9,3.2,2.4c0.7,0.2,2.1,0.4,4.3,0.7c3.5,0.4,6,1,7.4,1.6
		C417.9,475,419.6,476.7,421,479z"/>
	<path class="st2" d="M443.9,472.8l0.2,7.7l-3.2,2.2l-0.9-7.3l-2.2,1.5l-3.7-5.3l6-4.2L443.9,472.8z"/>
	<path class="st2" d="M477.7,437l-10.6,12.8L440,427.2l5.2-6.2l22.2,18.5l5.4-6.5L477.7,437z"/>
	<path class="st2" d="M499.7,404.6l-4.5,7.1l-5.6-2.7l-3.1,4.8l4.8,3.8l-4.5,7l-26-24.7l5.7-8.9L499.7,404.6z M483.7,406.2
		l-13.7-6.5l11.6,9.8L483.7,406.2z"/>
	<path class="st2" d="M512.3,383.7l-3,6.8l-5.9-2.6l3-6.8L512.3,383.7z"/>
</g>
<g>
	<path class="st2" d="M162.5,197.7c1.6,1.2,2.7,2,3.2,2.6c1,1.1,1.6,2.3,1.6,3.6c0.1,1.8-0.8,4-2.7,6.6c-2.1,2.9-4.2,4.5-6.3,4.6
		c-1.8,0.1-4.3-0.9-7.3-3.1l-14.4-10.4c-2.5-1.8-3.8-3.7-4-5.6c-0.2-1.8,0.6-4,2.5-6.5c1.6-2.2,3.3-3.7,5.1-4.5
		c1.3-0.5,2.5-0.6,3.7-0.3c0.9,0.3,1.9,0.9,3.3,1.9l3.9,2.8l-4.2,5.8l-2.5-1.8c-1.8-1.3-3.1-1.5-3.8-0.5c-0.8,1.1-0.2,2.2,1.6,3.6
		l13.7,10c0.9,0.6,1.6,1,2,1.1c0.8,0.2,1.4-0.1,2-0.8c0.5-0.7,0.5-1.3,0-2c-0.3-0.3-0.8-0.8-1.7-1.4l-3.8-2.7l4.2-5.8L162.5,197.7z"
		/>
	<path class="st2" d="M189.9,182.2l-5.4,5.1c-0.9-0.4-1.7-1.1-2.6-2l-5.9-6.1c-1.1-1.2-2-1.7-2.7-1.6c-0.6,0.1-1.4,0.7-2.6,1.9
		l10.5,11l-5.3,5L151.5,170l7.4-7.1c2.2-2.1,4.3-3,6.3-2.8c2,0.2,4.1,1.4,6.2,3.6c1.4,1.5,2.3,2.9,2.6,4.1c0.3,1.3,0.1,2.8-0.7,4.7
		c2.7-1.7,5-1.6,6.9,0.4l7,7.3C188.2,181.3,189.1,182,189.9,182.2z M166.8,169.4c-0.9-0.9-1.6-1.4-2.2-1.6c-0.8-0.2-1.7,0.1-2.5,0.9
		l-0.9,0.9l5.1,5.4c1.2-1.2,1.9-2.1,2-2.6C168.5,171.5,168,170.6,166.8,169.4z"/>
	<path class="st2" d="M210.1,167.9l-12.5,8.4l-19.7-29.3l12.5-8.4l3.5,5.2l-6.5,4.3l4.2,6.2l6.2-4.2l3.5,5.3l-6.2,4.2l5,7.4l6.5-4.3
		L210.1,167.9z"/>
	<path class="st2" d="M229.8,148.8c1.3,2.9,1.7,5.3,1,7.2c-0.4,1.2-1.1,2.2-2.1,3c-0.7,0.5-1.8,1.1-3.3,1.8c-3.6,1.6-6.2,2.2-8,1.6
		c-1.8-0.6-3.5-2.6-5.1-6.1c0-0.1-0.3-0.6-0.7-1.6l6.6-3c0.8,1.7,1.3,2.7,1.4,3c0.8,1.1,1.6,1.3,2.6,0.9c1.3-0.6,1.5-1.8,0.7-3.6
		c-0.5-1.2-1.2-2-2-2.6c-0.6-0.4-1.7-0.8-3.2-1.2c-3.9-1-6.5-1.8-7.5-2.3c-2.3-1.1-4-3-5.2-5.7c-1.2-2.7-1.5-5.1-0.9-7.2
		c0.6-1.9,2.4-3.5,5.5-4.9c3-1.4,5.4-1.8,7.1-1.3c2,0.5,3.6,2.3,4.9,5.2c0.1,0.2,0.4,0.9,0.9,2.2l-6.2,2.8c-0.6-1.3-1.1-2.1-1.5-2.5
		c-0.8-0.9-1.6-1.1-2.5-0.7c-1.2,0.6-1.5,1.7-0.8,3.3c0.5,1.2,1.5,2.1,2.8,2.7c0.6,0.3,1.9,0.7,3.9,1.2c3.2,0.8,5.5,1.6,6.8,2.5
		C227.1,144.4,228.6,146.3,229.8,148.8z"/>
	<path class="st2" d="M256.3,140.9c0.5,1.9,0.8,3.3,0.8,4c0.1,1.5-0.2,2.8-1,3.8c-1.1,1.4-3.2,2.6-6.3,3.4c-3.5,0.9-6.1,0.8-7.8-0.4
		c-1.5-1.1-2.7-3.4-3.7-7.1l-4.5-17.2c-0.8-3-0.6-5.3,0.4-6.9c1-1.5,3-2.7,6-3.5c2.7-0.7,4.9-0.8,6.8-0.2c1.3,0.4,2.3,1.1,3,2.1
		c0.5,0.7,0.9,1.9,1.4,3.5l1.2,4.7l-7,1.8l-0.8-3c-0.6-2.2-1.5-3.1-2.6-2.8c-1.3,0.3-1.6,1.6-1,3.8l4.3,16.4
		c0.3,1.1,0.6,1.8,0.8,2.1c0.5,0.6,1.1,0.8,2,0.6c0.8-0.2,1.2-0.7,1.2-1.5c0-0.4-0.1-1.1-0.4-2.2l-1.2-4.5l7-1.8L256.3,140.9z"/>
	<path class="st2" d="M283.2,146.5l-15,1.4l-3.2-35.2l15-1.4l0.6,6.3l-7.8,0.7l0.7,7.5l7.4-0.7l0.6,6.3L274,132l0.8,8.9l7.7-0.7
		L283.2,146.5z"/>
	<path class="st2" d="M313.6,148.2l-8.9-0.8l-3.7-19.8c-0.2-1.3-0.5-3.1-0.7-5.4c-0.1,3-0.1,4.6-0.1,4.9l-1.8,19.8l-6.6-0.6
		l3.1-35.2l9,0.8c0.9,4.3,1.7,8.6,2.6,12.8c0.9,4.9,1.6,9.3,2,12.9c0-3.1,0-5.2,0.1-6.4l1.7-18.8l6.5,0.6L313.6,148.2z"/>
	<path class="st2" d="M345.6,126.4l-5-1.4L333,153l-7.2-2l7.6-27.9l-5.2-1.4l1.7-6.2l17.4,4.7L345.6,126.4z"/>
	<path class="st2" d="M389.7,171.5c-1.8,2.6-3.6,4.2-5.3,4.8c-2,0.7-4.2,0.2-6.7-1.5l-8.8-6.1l20.1-29.1l8,5.5c2.9,2,4.4,4,4.5,6.1
		c0.1,1.8-0.7,3.9-2.4,6.3c-1.3,1.9-2.7,3.1-4.2,3.7c-1.1,0.4-2.5,0.4-4.3-0.2c1.3,1.6,1.9,3,1.8,4.3
		C392.2,167.1,391.3,169.1,389.7,171.5z M384.1,166.6c1-1.4,1.5-2.4,1.7-3c0.2-1-0.3-1.9-1.5-2.7c-0.3-0.2-0.6-0.4-1-0.6l-5,7.3
		l0.5,0.4c1.3,0.9,2.3,1.2,3.1,0.9C382.5,168.7,383.2,167.9,384.1,166.6z M392.3,154.3c0.8-1.1,1.2-2,1.2-2.7c0-0.6-0.5-1.3-1.5-2.1
		c-0.4-0.3-0.7-0.4-0.9-0.5l-4.2,6.1l0.3,0.2c1.2,0.8,2.2,1.1,2.9,0.9C390.8,156.1,391.5,155.4,392.3,154.3z"/>
	<path class="st2" d="M411,193c-2.5,2.5-4.8,3.7-6.8,3.5c-1.7-0.2-3.8-1.5-6.3-4c-2.1-2.2-3.3-4.1-3.5-5.9c-0.2-2,0.7-4,2.8-6.1
		l13.8-13.6c1.3-1.3,2.4-2.2,3.1-2.6c1.2-0.7,2.5-1.1,3.8-0.9c1.7,0.1,3.7,1.4,6.1,3.9c2.3,2.3,3.5,4.5,3.6,6.3c0.1,1.9-1,4-3.3,6.3
		L411,193z M406.1,187.7l12.2-12c1.8-1.8,2.2-3.1,1.2-4.1c-0.6-0.6-1.4-0.8-2.2-0.3c-0.4,0.2-1.1,0.7-1.9,1.6l-11.7,11.6
		c-0.8,0.8-1.3,1.4-1.6,1.8c-0.4,0.8-0.3,1.5,0.4,2.2C403.4,189.3,404.6,189.1,406.1,187.7z"/>
	<path class="st2" d="M423,224.1l-4.6-6.8l6.2-8.6l-10.1,2.8l-4.7-7l19.8-3.8l9.9-15.4l4.5,6.7l-5.6,7.3l8.9-2.5l4.4,6.6l-17.9,3.6
		L423,224.1z"/>
</g>
<g>
	<path class="st2" d="M129.6,333.2l-1.2-4.9l-4.2,1.1l1.2,4.7l-3.7,0.9l-1.2-4.7l-8.9,2.2l-1.2-4.6l20.4-5.1l2.4,9.6L129.6,333.2z"
		/>
	<path class="st2" d="M122.1,350.4c-2,0.6-3.6,0.6-4.6-0.1c-0.9-0.6-1.7-2.1-2.4-4.2c-0.6-1.9-0.7-3.4-0.4-4.4
		c0.4-1.2,1.4-2.1,3.1-2.6l11-3.5c1.1-0.3,1.9-0.5,2.4-0.5c0.9-0.1,1.6,0.2,2.3,0.6c0.9,0.6,1.7,2,2.4,4.1c0.7,2.1,0.8,3.6,0.3,4.8
		c-0.4,1.1-1.6,2-3.4,2.6L122.1,350.4z M120.8,345.8l9.7-3.1c1.4-0.5,2-1.1,1.7-2c-0.2-0.6-0.5-0.9-1.1-0.9c-0.3,0-0.8,0.1-1.4,0.3
		l-9.4,3c-0.7,0.2-1.1,0.4-1.3,0.6c-0.4,0.3-0.5,0.8-0.3,1.4C119,345.9,119.7,346.2,120.8,345.8z"/>
	<path class="st2" d="M123.7,368l-1.9-4.5c0.4-0.4,1-0.7,1.7-1l4.7-1.9c0.9-0.4,1.4-0.8,1.4-1.2c0.1-0.4-0.1-1-0.5-2l-8.4,3.4
		l-1.8-4.4l19.5-8l2.6,6.2c0.7,1.8,0.9,3.3,0.3,4.5c-0.5,1.1-1.6,2.1-3.3,2.8c-1.1,0.5-2.1,0.6-2.9,0.5c-0.8-0.1-1.6-0.7-2.6-1.6
		c0.4,2.1-0.1,3.4-1.6,4l-5.6,2.3C124.5,367.3,124,367.7,123.7,368z M135.7,357.6c0.7-0.3,1.1-0.6,1.3-0.9c0.3-0.4,0.3-1,0-1.7
		l-0.3-0.8l-4.1,1.7c0.4,1,0.8,1.6,1.1,1.8C134.1,358,134.7,358,135.7,357.6z"/>
	<path class="st2" d="M136.3,380.6c-1.9,1-3.5,1.2-4.7,0.8c-1.1-0.4-2-1.4-2.8-3l-3.1-6.1l18.7-9.7l2.9,5.6c1,1.9,1.4,3.5,1.1,4.7
		c-0.3,1.2-1.3,2.2-3.1,3.1L136.3,380.6z M134.6,376.2l7.9-4.1c0.7-0.4,1.2-0.7,1.4-1c0.2-0.4,0.1-1-0.3-1.7l-0.4-0.8l-12,6.2
		c0.6,1.1,1.1,1.7,1.4,1.9C133,376.8,133.6,376.7,134.6,376.2z"/>
	<path class="st2" d="M151.6,412.1l-2.7-3.5l12.8-9.9l-14.6,7.6l-3-3.8l11-12.2l-12.8,9.9l-2.7-3.5l16.6-12.9l4.5,5.7l-9.2,10.2
		l12.1-6.4l4.5,5.8L151.6,412.1z"/>
	<path class="st2" d="M162.8,423.5l-7-7l14.9-14.9l7,7l-2.6,2.6l-3.6-3.6l-3.2,3.2l3.5,3.5l-2.7,2.7l-3.5-3.5l-3.8,3.8l3.6,3.6
		L162.8,423.5z"/>
	<path class="st2" d="M184.3,419.1l-2.6-2.2l-11.2,13.2l-3.7-3.2l11.2-13.2l-2.7-2.3l2.4-2.9l9,7.7L184.3,419.1z"/>
	<path class="st2" d="M183.7,439.9l-8.1-5.8l12.2-17.1l8.1,5.8l-2.2,3l-4.2-3l-2.6,3.6l4,2.9l-2.2,3.1l-4-2.9l-3.1,4.3l4.2,3
		L183.7,439.9z"/>
	<path class="st2" d="M198.2,448.6l-4.2-2.4c0.1-0.6,0.3-1.2,0.7-1.8l2.5-4.4c0.5-0.8,0.6-1.5,0.4-1.9c-0.2-0.3-0.7-0.7-1.7-1.3
		l-4.5,7.8l-4.2-2.4l10.5-18.2l5.9,3.4c1.7,1,2.7,2.1,3,3.3c0.3,1.2,0,2.6-0.9,4.2c-0.6,1.1-1.3,1.8-2,2.1c-0.7,0.4-1.7,0.5-3,0.3
		c1.6,1.4,2,2.8,1.2,4.2l-3,5.2C198.4,447.5,198.2,448.1,198.2,448.6z M201.3,433c0.4-0.6,0.5-1.2,0.5-1.5c0-0.5-0.4-1-1.1-1.4
		l-0.7-0.4l-2.2,3.8c1,0.5,1.6,0.8,2,0.8C200.3,434.3,200.8,433.9,201.3,433z"/>
	<path class="st2" d="M235.4,457.2c-0.6,1.8-1.4,3-2.3,3.6c-1.1,0.7-2.6,0.7-4.5,0.1l-6.7-2.2l6.5-20l6.1,2c2.2,0.7,3.5,1.7,4,2.8
		c0.4,1.1,0.4,2.4-0.2,4.1c-0.4,1.3-1,2.2-1.8,2.8c-0.6,0.4-1.5,0.6-2.7,0.6c1.1,0.7,1.8,1.5,2,2.2
		C236,454.3,235.9,455.6,235.4,457.2z M230.9,455.3c0.3-1,0.5-1.6,0.4-2c-0.1-0.6-0.6-1-1.5-1.3c-0.2-0.1-0.4-0.1-0.7-0.2l-1.6,5
		l0.4,0.1c1,0.3,1.7,0.3,2.1,0.1C230.3,456.7,230.6,456.2,230.9,455.3z M233.5,446.8c0.2-0.8,0.3-1.4,0.2-1.8
		c-0.1-0.4-0.6-0.7-1.4-1c-0.3-0.1-0.5-0.1-0.6-0.2l-1.4,4.3l0.3,0.1c0.9,0.3,1.6,0.3,2,0.1C232.9,448.1,233.2,447.6,233.5,446.8z"
		/>
	<path class="st2" d="M250.5,461.6c-0.5,2.1-1.3,3.4-2.5,3.9c-1,0.4-2.6,0.4-4.9-0.2c-1.9-0.5-3.3-1.1-4-2c-0.9-0.9-1.1-2.3-0.7-4
		l2.7-11.2c0.3-1.1,0.5-1.9,0.8-2.3c0.4-0.8,1-1.3,1.8-1.7c1-0.5,2.6-0.4,4.8,0.1c2.1,0.5,3.5,1.2,4.2,2.2c0.7,1,0.9,2.4,0.4,4.2
		L250.5,461.6z M245.9,460.3l2.4-10c0.3-1.4,0.1-2.3-0.8-2.5c-0.6-0.1-1,0-1.3,0.5c-0.2,0.3-0.3,0.7-0.5,1.4l-2.3,9.6
		c-0.2,0.7-0.2,1.2-0.2,1.4c0.1,0.5,0.4,0.8,1,1C245,462,245.6,461.5,245.9,460.3z"/>
	<path class="st2" d="M266.5,469.5l-5.4-0.9l-1.4-6.2l-3.1,5.5l-5.5-0.9l7-10l-3.1-10.7l5.3,0.9l1,5.4l2.7-4.8l5.2,0.9l-6.2,9.1
		L266.5,469.5z"/>
	<path class="st2" d="M300.8,466.5c0,1.2-0.1,2-0.2,2.4c-0.2,0.9-0.6,1.6-1.3,2.1c-0.9,0.6-2.5,0.9-4.6,0.9c-2.4,0-4-0.5-4.8-1.5
		c-0.8-0.9-1.1-2.4-1.1-4.7l0.2-10.6c0-1.8,0.5-3.1,1.5-3.9c0.9-0.7,2.4-1.1,4.4-1c1.8,0,3.3,0.4,4.3,1c0.8,0.4,1.3,1,1.5,1.7
		c0.2,0.5,0.3,1.3,0.2,2.2l-0.1,2.9l-4.7-0.1l0-1.8c0-1.4-0.4-2.1-1.2-2.1c-0.9,0-1.3,0.7-1.3,2l-0.2,10.1c0,0.7,0,1.1,0.1,1.4
		c0.2,0.4,0.6,0.7,1.2,0.7c0.5,0,0.9-0.2,1.1-0.7c0.1-0.2,0.1-0.7,0.1-1.3l0.1-2.8l4.7,0.1L300.8,466.5z"/>
	<path class="st2" d="M316.5,465.8c0.1,2.1-0.3,3.6-1.3,4.5c-0.8,0.7-2.4,1.1-4.7,1.3c-2,0.1-3.5-0.1-4.4-0.7
		c-1.1-0.7-1.7-1.9-1.8-3.6l-0.7-11.5c-0.1-1.1,0-1.9,0.1-2.4c0.2-0.9,0.6-1.5,1.2-2.1c0.8-0.7,2.3-1.2,4.6-1.3
		c2.2-0.1,3.7,0.2,4.7,0.9c1,0.7,1.5,2,1.6,3.9L316.5,465.8z M311.8,466l-0.6-10.2c-0.1-1.5-0.6-2.2-1.5-2.1c-0.6,0-1,0.3-1.1,0.8
		c-0.1,0.3-0.1,0.8,0,1.5l0.6,9.8c0,0.7,0.1,1.2,0.2,1.4c0.2,0.5,0.6,0.7,1.2,0.7C311.4,467.8,311.8,467.2,311.8,466z"/>
	<path class="st2" d="M325.4,469.8l-4.4,0.6l-0.5-3.8l4.4-0.6L325.4,469.8z"/>
	<path class="st2" d="M363.9,437.2l3.9,21l-5.6,2.1l-7.1-13.2l3.3,14.6l-5.6,2.1l-10.7-18.5l4.5-1.7l7.3,14l-3.5-15.5l4.9-1.8
		l7.3,13.1l-3.5-14.6L363.9,437.2z"/>
	<path class="st2" d="M385.3,449.2l-4.4,2.4l-2.1-3l-3,1.6l1.4,3.4l-4.4,2.3l-6.4-20.5l5.6-3L385.3,449.2z M376.5,445.4l-5.3-7.4
		l3.2,8.5L376.5,445.4z"/>
	<path class="st2" d="M395.2,435.7c1.1,1.6,1.6,2.9,1.5,4.1c-0.1,1.3-1,2.5-2.6,3.6l-5.8,4L376.3,430l5.3-3.6
		c1.9-1.3,3.5-1.8,4.7-1.4c1.1,0.3,2.1,1.2,3.1,2.6c0.8,1.1,1.1,2.2,1.1,3.2c0,0.7-0.4,1.5-1.2,2.5c1.3-0.4,2.2-0.5,3-0.2
		C393.3,433.4,394.2,434.3,395.2,435.7z M385.8,430.8c-0.5-0.7-0.9-1.1-1.3-1.2c-0.4-0.2-0.9,0-1.6,0.5c-0.2,0.2-0.4,0.3-0.5,0.4
		l2.5,3.7l0.2-0.2c0.8-0.6,1.2-1.1,1.3-1.5C386.5,432.1,386.3,431.5,385.8,430.8z M390.9,438c-0.6-0.8-1-1.4-1.3-1.6
		c-0.5-0.3-1.2-0.2-2,0.4c-0.2,0.1-0.4,0.3-0.6,0.5l3,4.4l0.3-0.2c0.8-0.6,1.3-1.1,1.3-1.6C391.7,439.4,391.5,438.8,390.9,438z"/>
	<path class="st2" d="M411.8,429.3l-3.8,3.2l-2.7-2.5l-2.6,2.2l2.1,3l-3.8,3.2l-10.5-18.7l4.8-4.1L411.8,429.3z M402.4,427.4
		l-6.7-6.1l4.9,7.6L402.4,427.4z"/>
	<path class="st2" d="M418.3,415.5c1.3,1.3,2,2.6,2,3.9c0,0.8-0.2,1.5-0.7,2.2c-0.3,0.5-0.8,1.1-1.6,1.9c-1.8,1.8-3.3,2.8-4.5,2.9
		c-1.2,0.1-2.6-0.6-4.2-2.2c0,0-0.3-0.3-0.7-0.7l3.3-3.4c0.8,0.8,1.3,1.3,1.4,1.3c0.7,0.4,1.2,0.4,1.7-0.1c0.6-0.7,0.5-1.4-0.3-2.3
		c-0.5-0.5-1.1-0.8-1.7-0.9c-0.5-0.1-1.2,0-2.1,0.1c-2.5,0.4-4.2,0.6-4.9,0.6c-1.6-0.1-3-0.7-4.2-2c-1.3-1.2-1.9-2.5-1.9-3.9
		c0-1.2,0.8-2.6,2.3-4.3c1.5-1.5,2.8-2.4,4-2.6c1.3-0.2,2.6,0.4,4,1.8c0.1,0.1,0.4,0.4,0.9,1L408,412c-0.6-0.6-1.1-1-1.4-1.1
		c-0.6-0.3-1.2-0.3-1.6,0.2c-0.6,0.6-0.6,1.3,0.2,2.1c0.6,0.6,1.3,0.8,2.2,0.9c0.4,0,1.3-0.1,2.6-0.3c2.1-0.3,3.6-0.4,4.5-0.3
		C415.9,413.6,417.1,414.3,418.3,415.5z"/>
	<path class="st2" d="M432.7,406.3l-3,3.7l-7-5.7l-1.7,2.1l7,5.7l-3,3.7l-16.3-13.3l3-3.7l6.3,5.2l1.7-2.1l-6.3-5.2l3-3.7
		L432.7,406.3z"/>
	<path class="st2" d="M438.3,398.4l1.7,4.3l-1.3,1.9l-2-3.9l-0.9,1.3l-3.2-2.3l2.5-3.6L438.3,398.4z"/>
	<path class="st2" d="M448.7,381.9l-2.4,4.1l-18.2-10.6l2.4-4.1L448.7,381.9z"/>
	<path class="st2" d="M457.8,364.7l-2.7,5.3l-12-2c-0.8-0.1-1.8-0.4-3.2-0.7c1.7,0.7,2.6,1.1,2.7,1.2l10.6,5.4l-2,3.9l-18.8-9.5
		l2.7-5.3c2.6,0.4,5.2,0.8,7.8,1.2c3,0.5,5.5,1,7.7,1.6c-1.7-0.6-2.9-1.1-3.5-1.5l-10-5.1l2-3.8L457.8,364.7z"/>
	<path class="st2" d="M459.6,346.5c2,0.8,3.2,1.9,3.6,3.1c0.3,1.1,0.2,2.5-0.5,4.1l-2.7,6.3l-19.4-8.2l2.4-5.8
		c0.8-2,1.8-3.3,2.9-3.8c1.1-0.5,2.5-0.4,4.4,0.4L459.6,346.5z M457.2,350.7l-8.2-3.5c-0.8-0.3-1.3-0.5-1.6-0.4
		c-0.4,0.1-0.8,0.5-1.1,1.3l-0.3,0.8l12.5,5.3c0.5-1.1,0.6-1.9,0.5-2.3C458.8,351.5,458.2,351.1,457.2,350.7z"/>
	<path class="st2" d="M467.6,340.9l-1.5,4.1l-3.6-1.4l1.5-4.1L467.6,340.9z"/>
</g>
<path class="st4" d="M531.9,527.8c0,9.8-8,17.8-17.8,17.8c-9.8,0-17.8-8-17.8-17.8c0-9.8,8-17.8,17.8-17.8
	C523.9,510,531.9,518,531.9,527.8z"/>
<g>
	<path class="st1" d="M506.7,515.3c1.6-0.3,4-0.5,6.1-0.5c3.4,0,5.7,0.7,7.2,2.1c1.2,1.1,1.9,2.8,1.9,4.7c0,3.2-2.1,5.4-4.7,6.3v0.1
		c1.9,0.7,3,2.4,3.6,5c0.8,3.5,1.4,5.8,1.9,6.8h-3.3c-0.4-0.7-1-2.8-1.6-5.9c-0.7-3.4-2.1-4.7-5-4.8h-3v10.7h-3.2V515.3z
		 M509.9,526.6h3.3c3.4,0,5.6-1.9,5.6-4.7c0-3.2-2.3-4.6-5.7-4.6c-1.5,0-2.6,0.1-3.2,0.3V526.6z"/>
</g>
<polygon class="st2" points="133.1,240.2 137.9,229 140.4,240.9 152.5,242 142,248.1 144.7,259.9 135.6,251.8 125.2,258 
	130.1,246.9 121,238.9 "/>
<g>
	<polygon class="st2" points="245.2,298.6 237.1,305.8 232.6,300.8 240.7,293.6 	"/>
	
		<rect x="233.8" y="297.1" transform="matrix(0.7472 -0.6646 0.6646 0.7472 -138.7659 234.5677)" class="st2" width="10.3" height="5.2"/>
</g>
</svg>
